<?xml version="1.0" ?><svg id="Icons" viewBox="0 0 24 24" xmlns="http://www.w3.org/2000/svg" xmlns:xlink="http://www.w3.org/1999/xlink"><defs><style>.cls-1{fill:url(#linear-gradient);}.cls-2{fill:url(#linear-gradient-2);}.cls-3{fill:url(#linear-gradient-3);}</style><linearGradient gradientUnits="userSpaceOnUse" id="linear-gradient" x1="8" x2="8" y1="1.117" y2="22.922"><stop offset="0" stop-color="#e864ff"/><stop offset="1" stop-color="#ba20ed"/></linearGradient><linearGradient id="linear-gradient-2" x1="18" x2="18" xlink:href="#linear-gradient" y1="1.117" y2="22.922"/><linearGradient gradientUnits="userSpaceOnUse" id="linear-gradient-3" x1="12" x2="12" y1="0.447" y2="23.944"><stop offset="0" stop-color="#5d5c66"/><stop offset="1" stop-color="#48474f"/></linearGradient></defs><path class="cls-1" d="M7,1H9a2,2,0,0,1,2,2V23a0,0,0,0,1,0,0H5a0,0,0,0,1,0,0V3A2,2,0,0,1,7,1Z"/><path class="cls-2" d="M17,9h2a2,2,0,0,1,2,2V23a0,0,0,0,1,0,0H15a0,0,0,0,1,0,0V11A2,2,0,0,1,17,9Z"/><path class="cls-3" d="M23,24H4a4,4,0,0,1-4-4V1A1,1,0,0,1,2,1V20a2,2,0,0,0,2,2H23a1,1,0,0,1,0,2Z"/></svg>