<svg width="18" height="16" fill="none" xmlns="http://www.w3.org/2000/svg"><path d="M16.5 0h-15A1.5 1.5 0 000 1.5v9c0 .844.656 1.5 1.5 1.5h6l-.75 3H4.5c-.281 0-.5.25-.5.5 0 .281.219.5.5.5h9c.25 0 .5-.219.5-.5 0-.25-.25-.5-.5-.5h-2.25l-.75-3h6a1.5 1.5 0 001.5-1.5v-9c0-.813-.688-1.5-1.5-1.5zM7.781 15l.5-2H9.72l.5 2H7.78zM17 10.5c0 .281-.25.5-.5.5h-15a.494.494 0 01-.5-.5v-9c0-.25.219-.5.5-.5h15c.25 0 .5.25.5.5v9z" fill="#0D0D0D"/><path d="M14.123 3.19l-.015-.018-.019-.015A3.987 3.987 0 0011.28 2 3.987 3.987 0 008.47 3.156l-.019.016-.016.019A3.987 3.987 0 007.28 6c0 1.094.441 2.086 1.155 2.81l.016.018.02.016A3.986 3.986 0 0011.28 10a3.986 3.986 0 002.81-1.157l.018-.015c.006-.005.01-.012.015-.018A3.987 3.987 0 0015.28 6a3.986 3.986 0 00-1.157-2.81zm-.2 5.098l-.72-.719c.3-.367.498-.82.548-1.318h1.016a3.484 3.484 0 01-.845 2.037zM7.791 6.25h1.016c.05.497.248.95.548 1.318l-.719.719a3.482 3.482 0 01-.845-2.037zm.845-2.538l.719.718c-.3.367-.497.821-.548 1.318H7.792a3.482 3.482 0 01.845-2.036zm2.643 4.269A1.984 1.984 0 019.298 6c0-1.093.889-1.981 1.982-1.981 1.092 0 1.981.888 1.981 1.981a1.984 1.984 0 01-1.981 1.982zm1.568-3.906c-.367-.3-.82-.497-1.317-.547V2.512a3.482 3.482 0 012.036.845l-.719.72zm-1.82-.547c-.496.05-.95.247-1.317.547l-.719-.719c.555-.48 1.26-.79 2.037-.845V3.53zM9.711 7.924c.367.3.82.497 1.317.547v1.017a3.482 3.482 0 01-2.036-.845l.719-.719zm1.82.547c.497-.05.95-.247 1.317-.547l.72.719c-.555.48-1.261.79-2.037.845V8.47zm2.22-2.722a2.472 2.472 0 00-.547-1.318l.718-.718c.48.554.79 1.26.845 2.036h-1.016z" fill="#4C5BB3"/><path d="M11.813 6.533a.754.754 0 11-1.067-1.065.754.754 0 011.067 1.065z" fill="#4C5BB3"/><path d="M14.123 3.19l-.015-.018-.019-.015A3.987 3.987 0 0011.28 2 3.987 3.987 0 008.47 3.156l-.019.016-.016.019A3.987 3.987 0 007.28 6c0 1.094.441 2.086 1.155 2.81l.016.018.02.016A3.986 3.986 0 0011.28 10a3.986 3.986 0 002.81-1.157l.018-.015c.006-.005.01-.012.015-.018A3.987 3.987 0 0015.28 6a3.986 3.986 0 00-1.157-2.81zm-.2 5.098l-.72-.719c.3-.367.498-.82.548-1.318h1.016a3.484 3.484 0 01-.845 2.037zM7.791 6.25h1.016c.05.497.248.95.548 1.318l-.719.719a3.482 3.482 0 01-.845-2.037zm.845-2.538l.719.718c-.3.367-.497.821-.548 1.318H7.792a3.482 3.482 0 01.845-2.036zm2.643 4.269A1.984 1.984 0 019.298 6c0-1.093.889-1.981 1.982-1.981 1.092 0 1.981.888 1.981 1.981a1.984 1.984 0 01-1.981 1.982zm1.568-3.906c-.367-.3-.82-.497-1.317-.547V2.512a3.482 3.482 0 012.036.845l-.719.72zm-1.82-.547c-.496.05-.95.247-1.317.547l-.719-.719c.555-.48 1.26-.79 2.037-.845V3.53zM9.711 7.924c.367.3.82.497 1.317.547v1.017a3.482 3.482 0 01-2.036-.845l.719-.719zm1.82.547c.497-.05.95-.247 1.317-.547l.72.719c-.555.48-1.261.79-2.037.845V8.47zm2.22-2.722a2.472 2.472 0 00-.547-1.318l.718-.718c.48.554.79 1.26.845 2.036h-1.016z" stroke="#4C5BB3" stroke-width=".2"/><path d="M11.813 6.533a.754.754 0 11-1.067-1.065.754.754 0 011.067 1.065z" stroke="#4C5BB3" stroke-width=".2"/><path d="M4.927 3.049L2.547 4.58a.73.73 0 00-.218 1.008l1.532 2.38a.73.73 0 001.008.218l2.38-1.533a.73.73 0 00.218-1.007l-1.533-2.38a.73.73 0 00-1.007-.218z" fill="#E84C4D" stroke="#fff" stroke-width=".5"/><path d="M5.082 5.909a.346.346 0 10-.375-.582.346.346 0 00.375.582z" fill="#fff"/><path d="M9.833 5.974L7.199 4.937a.73.73 0 00-.945.411L5.217 7.982a.73.73 0 00.411.945l2.634 1.037a.73.73 0 00.945-.411l1.037-2.634a.73.73 0 00-.411-.945z" fill="#E84C4D" stroke="#fff" stroke-width=".5"/><path d="M7.262 6.998a.346.346 0 10.253-.643.346.346 0 00-.253.643zM6.826 8.106a.346.346 0 10.253-.644.346.346 0 00-.253.644zM8.381 7.44a.346.346 0 10.254-.644.346.346 0 00-.254.644zM7.947 8.546a.346.346 0 10.252-.643.346.346 0 00-.252.643z" fill="#fff"/></svg>